<svg width="26" height="26" viewBox="0 0 26 26" fill="none" xmlns="http://www.w3.org/2000/svg">
<g clip-path="url(#clip0)">
<path d="M25.3532 12.9328L25.3532 12.9327L22.4356 10.7177C22.4356 10.7177 22.4356 10.7177 22.4356 10.7177C22.3225 10.6319 22.1728 10.6179 22.0469 10.6807L22.0459 10.6812C21.9205 10.7433 21.8404 10.8719 21.8404 11.0133V12.3686V12.8686H21.3404H20.4773H19.9773V12.3686V10.9988C19.9773 10.7937 19.811 10.6276 19.6064 10.6276H17.8724H17.3724V10.1276V6.89285C17.3724 6.68775 17.2061 6.52163 17.0013 6.52163H14.2922H13.7922V6.02163V5.09707V4.59707H14.2922H15.0215C15.2264 4.59707 15.3926 4.43083 15.3926 4.22593C15.3926 4.02117 15.2265 3.85498 15.0215 3.85498H9.39412C9.18921 3.85498 9.02308 4.02114 9.02308 4.22593C9.02308 4.43086 9.18935 4.59707 9.39412 4.59707H10.1239H10.6239V5.09707V6.02163V6.52163H10.1239H6.75652C6.55162 6.52163 6.38539 6.68778 6.38539 6.89285V8.59312V9.09312H5.88539H4.18424C3.97923 9.09312 3.81311 9.2593 3.81311 9.46416V11.4568V11.9568H3.31311H1.742H1.242V11.4568V8.98533C1.242 8.78043 1.07585 8.61428 0.870954 8.61428H0.870862C0.666157 8.61425 0.5 8.78032 0.5 8.98524V18.0962C0.5 18.3011 0.666028 18.4672 0.871042 18.4672C1.07597 18.4672 1.24208 18.301 1.24208 18.0962V15.6247V15.1247H1.74208H3.31329H3.81329V15.6247V17.6674C3.81329 17.8723 3.97937 18.0384 4.18442 18.0384H6.37488H6.61296L6.76303 18.2233L9.83608 22.0078C9.8361 22.0079 9.83613 22.0079 9.83615 22.0079C9.90662 22.0946 10.0125 22.145 10.1241 22.145H19.6065C19.8113 22.145 19.9775 21.9788 19.9775 21.7738V20.6229V20.1229H20.4775H21.3405H21.8405V20.6229V21.7738C21.8405 21.9185 21.9246 22.0501 22.0565 22.1111C22.1063 22.1338 22.1591 22.1449 22.2115 22.1449C22.2983 22.1449 22.3842 22.1144 22.4535 22.0551L25.3706 19.555L25.3532 12.9328ZM25.3532 12.9328C25.4457 13.0029 25.5001 13.1126 25.5002 13.2284V19.2729C25.5002 19.3814 25.453 19.4841 25.3708 19.5548L25.3532 12.9328ZM21.8239 10.2332C21.5279 10.3798 21.3404 10.6822 21.3404 11.0133V11.8686V12.3686H20.9773H20.8404H20.4773V11.8686V10.9988C20.4773 10.5177 20.0873 10.1276 19.6064 10.1276H18.3724H17.8724V9.62761V6.89285C17.8724 6.41164 17.4823 6.02163 17.0013 6.02163H14.7922H14.2922V5.59706V5.52163V5.09707H14.7922H15.0215C15.5025 5.09707 15.8926 4.70697 15.8926 4.22593C15.8926 3.7449 15.5025 3.35498 15.0215 3.35498H9.39412C8.91317 3.35498 8.52308 3.7449 8.52308 4.22593C8.52308 4.70697 8.91317 5.09707 9.39412 5.09707H9.62395H10.1239V5.52163V5.59706V6.02163H9.62395H6.75652C6.27548 6.02163 5.88539 6.41164 5.88539 6.89285V8.09312V8.59312H5.38539H4.18424C3.70312 8.59312 3.31311 8.98313 3.31311 9.46416V10.9568V11.4568H2.81311H2.242H1.742V10.9568V8.98533C1.742 8.50429 1.35199 8.11428 0.870954 8.11428C0.389918 8.1142 0 8.50429 0 8.98524V18.0962C0 18.5773 0.389918 18.9672 0.871042 18.9672C1.35208 18.9672 1.74208 18.5772 1.74208 18.0962V16.1247V15.6247H2.24208H2.81329H3.31329V16.1247V17.6674C3.31329 18.1485 3.70329 18.5384 4.18442 18.5384H6.37488L9.448 22.3231L21.8239 10.2332ZM21.8239 10.2332C22.1208 10.0852 22.4741 10.1192 22.7379 10.3194L21.8239 10.2332Z" stroke="#707683"/>
<path d="M11.3264 15.8293C11.3264 15.2369 11.3983 14.7651 11.5422 14.4138C11.6861 14.0626 11.9484 13.7177 12.3293 13.3792C12.7144 13.0364 12.9704 12.7592 13.0974 12.5476C13.2243 12.3318 13.2878 12.1054 13.2878 11.8684C13.2878 11.1532 12.9577 10.7957 12.2976 10.7957C11.9844 10.7957 11.7326 10.893 11.5422 11.0876C11.356 11.2781 11.2587 11.5426 11.2502 11.8811H9.40937C9.41783 11.0728 9.67809 10.4402 10.1901 9.98315C10.7064 9.52612 11.4089 9.29761 12.2976 9.29761C13.1947 9.29761 13.8908 9.51554 14.3859 9.95142C14.881 10.3831 15.1286 10.9945 15.1286 11.7859C15.1286 12.1456 15.0482 12.4862 14.8874 12.8079C14.7266 13.1252 14.4452 13.4786 14.0432 13.8679L13.529 14.3567C13.2074 14.6656 13.0233 15.0274 12.9768 15.4421L12.9514 15.8293H11.3264ZM11.1423 17.7781C11.1423 17.4945 11.2375 17.2618 11.4279 17.0798C11.6226 16.8936 11.8701 16.8005 12.1706 16.8005C12.4711 16.8005 12.7165 16.8936 12.9069 17.0798C13.1016 17.2618 13.1989 17.4945 13.1989 17.7781C13.1989 18.0574 13.1037 18.288 12.9133 18.47C12.7271 18.6519 12.4795 18.7429 12.1706 18.7429C11.8617 18.7429 11.612 18.6519 11.4216 18.47C11.2354 18.288 11.1423 18.0574 11.1423 17.7781Z" fill="#707683"/>
</g>
<defs>
<clipPath id="clip0">
<rect width="26" height="26" fill="white"/>
</clipPath>
</defs>
</svg>
