<svg width="17" height="16" viewBox="0 0 17 16" fill="none" xmlns="http://www.w3.org/2000/svg">
<g clip-path="url(#clip0)">
<path d="M14.149 2.34316C12.5836 0.832156 10.5022 0 8.28829 0C6.07441 0 3.99304 0.832156 2.42759 2.34316C0.862144 3.85416 0 5.86312 0 8C0 10.1369 0.862144 12.1458 2.42759 13.6568C3.99304 15.1678 6.07441 16 8.28829 16C10.5022 16 12.5836 15.1678 14.149 13.6568C15.7144 12.1458 16.5766 10.1369 16.5766 8C16.5766 5.86312 15.7144 3.85416 14.149 2.34316ZM12.1728 3.43847L12.5371 1.97747C13.988 2.93409 15.077 4.36578 15.5618 6.03866L15.371 6.07409C15.0859 6.127 14.8566 6.33687 14.7867 6.60884L14.7127 6.89691C14.7118 6.90016 14.7113 6.90228 14.7059 6.90413C14.7005 6.90597 14.6987 6.90466 14.6959 6.90266L14.2537 6.58256C14.0245 6.41663 13.7124 6.39228 13.4586 6.52056L12.9067 6.79944C12.642 6.93319 12.489 7.19509 12.5074 7.48297C12.5258 7.77081 12.711 8.01259 12.9908 8.114L13.017 8.12347C13.02 8.12456 13.0222 8.12534 13.0236 8.13059C13.0249 8.13578 13.0234 8.1375 13.0212 8.13988L12.6775 8.52147C12.674 8.52528 12.668 8.52616 12.6636 8.52334L11.737 7.94628C11.5245 7.81394 11.2596 7.794 11.0285 7.89309C10.7974 7.99216 10.635 8.19506 10.5942 8.43591L10.5227 8.85756C10.4823 9.09556 10.5671 9.33606 10.7497 9.50088L11.2329 9.93734C11.2367 9.94078 11.2374 9.94634 11.2345 9.95053L10.4469 11.1029C10.372 11.2125 10.3295 11.3399 10.324 11.4713L10.2557 13.1211C10.2556 13.1237 10.2544 13.1261 10.2524 13.128L9.20363 14.1202C9.20016 14.1235 9.19482 14.1242 9.19071 14.1218L8.51062 13.7373C8.50803 13.7358 8.50618 13.7334 8.50556 13.7306C8.50556 13.7306 8.17562 12.2855 8.16328 12.2534L7.86332 11.4763C7.76308 11.2167 7.51359 11.0334 7.22771 11.0095L5.8549 10.8942C5.85143 10.8939 5.84833 10.8921 5.84658 10.8891L5.0656 9.58937C5.06437 9.58734 5.06395 9.58494 5.06427 9.58266L5.2607 8.32213C5.26112 8.31944 5.26258 8.31703 5.26481 8.31541L6.46393 7.44212C6.46697 7.43991 6.47098 7.43947 6.47451 7.44084L7.63643 7.90872C7.70257 7.93531 7.77221 7.95259 7.84334 7.96006L9.45263 8.12891C9.63607 8.14816 9.8191 8.10162 9.96884 7.99803L11.035 7.26038C11.3223 7.06166 11.4262 6.69134 11.2821 6.37984L11.1832 6.16616C11.0684 5.91816 10.8225 5.75488 10.5416 5.74006L7.54723 5.58181C7.54561 5.58172 7.54399 5.58125 7.54257 5.58047C7.53953 5.57881 7.53791 5.57747 7.53774 5.57747V5.5775C7.53629 5.57425 7.53739 5.56603 7.5391 5.56375C7.53956 5.56347 7.54144 5.56253 7.54509 5.56153L8.44405 5.32766C8.56297 5.29672 8.67311 5.23728 8.76257 5.15578L9.86193 4.15444C9.86358 4.15291 9.86578 4.15194 9.86811 4.15169L11.5227 3.98722C11.8375 3.95597 12.0987 3.73547 12.1728 3.43847ZM6.5684 2.85138L7.18692 1.72769C7.27831 1.56159 7.30713 1.36866 7.26795 1.18444L7.18397 0.789281C7.54454 0.738031 7.91318 0.711125 8.28826 0.711125C8.66654 0.711125 9.03831 0.738469 9.40183 0.790531C9.40183 0.790531 9.31322 0.884031 9.2979 0.889938L8.4219 1.22909C8.29674 1.27759 8.1842 1.3555 8.09646 1.45444L6.73158 2.99425C6.71303 3.01519 6.68603 3.02784 6.65747 3.02903C6.61412 3.03087 6.58734 3.00778 6.57481 2.99434C6.52628 2.94222 6.56368 2.86006 6.5684 2.85138ZM3.34847 2.49119V3.55803C3.34847 3.856 3.19374 4.13047 2.9348 4.29259L2.14168 4.78934C1.95788 4.90453 1.80206 5.05137 1.67864 5.22597L0.958787 6.24409C1.33956 4.76369 2.18995 3.46038 3.34847 2.49119ZM3.82993 12.987L3.72559 13.8039C2.54476 12.9369 1.63532 11.7427 1.14408 10.3623H1.61308C1.67054 10.3623 1.72358 10.3904 1.75453 10.437L2.70234 11.8624C2.74507 11.9264 2.79591 11.9847 2.85412 12.0359L3.77616 12.8476C3.8163 12.8828 3.83657 12.9351 3.82993 12.987ZM8.28829 15.2889C6.87154 15.2889 5.54486 14.91 4.4107 14.2522L4.56115 13.0741C4.59689 12.7936 4.48895 12.5123 4.27271 12.3221C4.27271 12.3221 3.33043 11.4901 3.32231 11.4784L2.3745 10.053C2.20724 9.80125 1.92249 9.65119 1.61308 9.65119H0.932206C0.804385 9.12044 0.736719 8.56769 0.736719 8C0.736719 7.93869 0.737561 7.87762 0.739115 7.81669L2.28718 5.62703C2.35533 5.53031 2.44116 5.44925 2.54282 5.38562L3.33555 4.88928C3.80484 4.59559 4.08519 4.09781 4.08519 3.55809V1.94738C4.80034 1.48319 5.60194 1.13416 6.46124 0.927281L6.54626 1.32731C6.55105 1.34997 6.54752 1.37369 6.53629 1.39406L5.91784 2.51772C5.87918 2.58788 5.82909 2.77238 5.82909 2.77238C5.77888 3.01775 5.8468 3.26737 6.01548 3.45725C6.17633 3.63834 6.40678 3.74028 6.65232 3.74028C6.66427 3.74028 7.02044 3.75706 7.29136 3.45659L8.65621 1.91688C8.66699 1.90469 8.68088 1.89509 8.69623 1.88916L9.57216 1.55003C9.69675 1.50181 9.8088 1.42441 9.89628 1.32622L10.2269 0.955125C10.809 1.1045 11.3638 1.319 11.8819 1.59075C11.8734 1.60962 11.4564 3.27213 11.4564 3.27213C11.4554 3.27634 11.4516 3.2795 11.4471 3.27994L9.79248 3.44441C9.62989 3.46059 9.47491 3.52909 9.35612 3.63734L8.25675 4.63869C8.25549 4.63981 8.25397 4.64069 8.25222 4.64109L7.35323 4.87497C7.05994 4.95125 6.84532 5.18847 6.80647 5.47925C6.76761 5.77003 6.91285 6.052 7.17652 6.19769C7.27705 6.25319 7.39131 6.28575 7.50689 6.29187L10.5013 6.45013C10.5052 6.45034 10.5088 6.45269 10.5104 6.45622L10.6093 6.66984C10.6113 6.67428 10.6099 6.67959 10.6057 6.68244L9.5395 7.42009C9.53736 7.42159 9.53487 7.42225 9.53218 7.42197L7.91998 7.25244L6.75819 6.78463C6.51411 6.68628 6.2314 6.72078 6.02024 6.8745L4.8211 7.74781C4.66407 7.86219 4.56147 8.02859 4.53224 8.21638L4.33578 9.47694C4.31065 9.63831 4.34355 9.80494 4.42834 9.94609L5.20935 11.2459C5.33134 11.449 5.54885 11.5823 5.79115 11.6027L7.16399 11.718C7.16804 11.7183 7.17164 11.7209 7.17306 11.7247L7.47341 12.5032L7.78591 13.8826C7.83036 14.0787 7.9588 14.2494 8.13826 14.3509L8.81838 14.7355C8.93558 14.8018 9.0659 14.8341 9.1954 14.8341C9.38658 14.8341 9.57611 14.7637 9.71935 14.6282L10.7682 13.6359C10.9048 13.5067 10.9842 13.3339 10.9919 13.1495L11.0602 11.4998C11.0603 11.4979 11.0609 11.4961 11.062 11.4946L11.8496 10.3422C12.0507 10.0478 12.0031 9.65919 11.7363 9.41825L11.253 8.98178C11.2504 8.97944 11.2492 8.976 11.2498 8.97259L11.3213 8.55091C11.3219 8.5475 11.3222 8.54544 11.3275 8.54316C11.3326 8.54088 11.3345 8.54203 11.3376 8.54391L12.2641 9.12097C12.5744 9.31419 12.991 9.25719 13.2334 8.98822L13.5771 8.60662C13.7378 8.42837 13.7978 8.18522 13.7377 7.95622C13.6776 7.72722 13.5051 7.54091 13.2758 7.45784L13.2496 7.44838C13.2463 7.44716 13.2446 7.44609 13.2445 7.44609C13.2425 7.44341 13.242 7.43534 13.2434 7.43272C13.2437 7.43241 13.2453 7.43116 13.2484 7.42956L13.8003 7.15066C13.804 7.14881 13.8084 7.14916 13.8117 7.15153L14.2539 7.47162C14.4549 7.61719 14.7163 7.65547 14.953 7.57409C15.1897 7.49275 15.3672 7.30363 15.4277 7.06819L15.5018 6.78016C15.5027 6.77628 15.506 6.77325 15.5101 6.7725L15.7253 6.73256C15.8005 7.14434 15.84 7.56784 15.84 8.00009C15.8398 12.0191 12.4522 15.2889 8.28829 15.2889Z" fill="white"/>
</g>
<defs>
<clipPath id="clip0">
<rect width="16.5766" height="16" fill="white"/>
</clipPath>
</defs>
</svg>
