<svg width="19" height="19" viewBox="0 0 19 19" fill="none" xmlns="http://www.w3.org/2000/svg">
<path d="M18.5163 12.6152C18.2492 12.6152 18.0326 12.8318 18.0326 13.0989V14.9471C18.0326 16.0138 17.1647 16.8818 16.0979 16.8818H2.90206C1.83528 16.8818 0.967367 16.0138 0.967367 14.9471V13.0989C0.967367 12.8318 0.750834 12.6152 0.483684 12.6152C0.216533 12.6152 0 12.8317 0 13.0989V14.9471C0 16.5472 1.30187 17.8491 2.90206 17.8491H16.0979C17.6981 17.8491 19 16.5472 19 14.9471V13.0989C19 12.8317 18.7835 12.6152 18.5163 12.6152Z" fill="#333333"/>
<path d="M15.5797 14.5209H3.42021C3.15313 14.5209 2.93652 14.7375 2.93652 15.0046C2.93652 15.2716 3.15306 15.4882 3.42021 15.4882H15.5797C15.8468 15.4882 16.0633 15.2717 16.0633 15.0046C16.0633 14.7375 15.8468 14.5209 15.5797 14.5209Z" fill="#333333"/>
<path d="M14.3953 7.71618C14.2174 7.51701 13.9116 7.49969 13.7124 7.67766L9.98354 11.0088V1.63462C9.98354 1.36755 9.76701 1.15094 9.49986 1.15094C9.23278 1.15094 9.01617 1.36747 9.01617 1.63462V11.0088L5.28735 7.6777C5.08818 7.49972 4.7824 7.51709 4.60439 7.71622C4.42649 7.91546 4.44367 8.22124 4.64287 8.39918L8.69425 12.0183C8.92385 12.2235 9.21178 12.3261 9.49982 12.3261C9.78775 12.3261 10.0757 12.2235 10.3054 12.0185L14.3568 8.39918C14.556 8.22113 14.5733 7.91535 14.3953 7.71618Z" fill="#333333"/>
</svg>
