<svg width="18" height="18" viewBox="0 0 18 18" fill="none" xmlns="http://www.w3.org/2000/svg">
<path d="M5.32178 11.4H4.49463V7.40442L3.27441 7.82141V7.12073L5.21582 6.40637H5.32178V11.4ZM10.4675 11.4H7.12127V10.8292L8.77898 9.02112C9.01824 8.75452 9.188 8.53235 9.28826 8.35461C9.3908 8.1746 9.44207 7.99459 9.44207 7.81458C9.44207 7.5776 9.37485 7.38619 9.24041 7.24036C9.10825 7.09452 8.92938 7.02161 8.70379 7.02161C8.43491 7.02161 8.22641 7.10364 8.0783 7.2677C7.93019 7.43176 7.85613 7.65621 7.85613 7.94104H7.02557C7.02557 7.63798 7.09393 7.36568 7.23064 7.12415C7.36964 6.88033 7.56674 6.6912 7.82195 6.55676C8.07944 6.42232 8.37566 6.3551 8.71063 6.3551C9.1937 6.3551 9.57423 6.47701 9.85223 6.72083C10.1325 6.96236 10.2726 7.29732 10.2726 7.72571C10.2726 7.97408 10.202 8.23499 10.0607 8.50842C9.92173 8.77958 9.69272 9.08834 9.37371 9.43469L8.15691 10.7369H10.4675V11.4Z" fill="#777777"/>
<rect x="0.5" y="2.29999" width="13.4" height="13.4" rx="1.5" stroke="#777777" stroke-linejoin="round"/>
<path d="M4.46289 0V5.1" stroke="#777777"/>
<path d="M9.9375 0V5.1" stroke="#777777"/>
<circle cx="12.6001" cy="13.5" r="4.5" fill="#444444"/>
<path d="M10.6001 11.5L12.6001 13.5H15.6001" stroke="white"/>
</svg>
