<svg width="24" height="23" viewBox="0 0 24 23" fill="none" xmlns="http://www.w3.org/2000/svg">
<path d="M9.9824 17.8417C8.82792 17.8417 7.88867 18.7809 7.88867 19.9354C7.88867 21.0899 8.82792 22.0291 9.9824 22.0291C11.1369 22.0291 12.0761 21.0899 12.0761 19.9354C12.0761 18.7809 11.1368 17.8417 9.9824 17.8417ZM9.9824 20.86C9.47251 20.86 9.05771 20.4452 9.05771 19.9353C9.05771 19.4254 9.47256 19.0106 9.9824 19.0106C10.4922 19.0106 10.9071 19.4255 10.9071 19.9353C10.9071 20.4452 10.4922 20.86 9.9824 20.86Z" fill="#6BA30F"/>
<path d="M17.3263 17.8417C16.1718 17.8417 15.2325 18.7809 15.2325 19.9354C15.2325 21.0899 16.1718 22.0291 17.3263 22.0291C18.4808 22.0291 19.42 21.0899 19.42 19.9354C19.42 18.7809 18.4807 17.8417 17.3263 17.8417ZM17.3263 20.86C16.8164 20.86 16.4016 20.4452 16.4016 19.9353C16.4016 19.4254 16.8164 19.0106 17.3263 19.0106C17.8362 19.0106 18.251 19.4255 18.251 19.9353C18.251 20.4452 17.8361 20.86 17.3263 20.86Z" fill="#6BA30F"/>
<path d="M17.8418 6.81842H9.46538C9.14255 6.81842 8.88086 7.08011 8.88086 7.40294C8.88086 7.72577 9.14259 7.98746 9.46538 7.98746H17.8418C18.1647 7.98746 18.4263 7.72577 18.4263 7.40294C18.4263 7.08006 18.1647 6.81842 17.8418 6.81842Z" fill="#6BA30F"/>
<path d="M17.3859 9.85382H9.92131C9.59848 9.85382 9.33679 10.1155 9.33679 10.4383C9.33679 10.7612 9.59848 11.0229 9.92131 11.0229H17.3859C17.7087 11.0229 17.9704 10.7612 17.9704 10.4383C17.9704 10.1156 17.7087 9.85382 17.3859 9.85382Z" fill="#6BA30F"/>
<path d="M23.5435 4.21405C23.3206 3.94046 22.9903 3.78358 22.6373 3.78358H4.43019L4.06249 1.9986C3.98573 1.62624 3.73176 1.3136 3.38298 1.16216L0.817397 0.0485442C0.521209 -0.0801139 0.17699 0.0557977 0.0485176 0.351893C-0.080094 0.648081 0.0558177 0.992347 0.351866 1.12082L2.9175 2.23448L5.74574 15.9633C5.85715 16.504 6.33868 16.8964 6.89074 16.8964H20.8942C21.217 16.8964 21.4787 16.6347 21.4787 16.3119C21.4787 15.9891 21.217 15.7274 20.8942 15.7274H6.89078L6.54675 14.0574H21.0024C21.5544 14.0574 22.036 13.665 22.1473 13.1243L23.7823 5.18836C23.8535 4.84279 23.7665 4.4876 23.5435 4.21405ZM21.0024 12.8885H6.30594L4.67105 4.95257L22.6373 4.95262L21.0024 12.8885Z" fill="#6BA30F"/>
</svg>
