<svg width="24" height="22" viewBox="0 0 24 22" fill="none" xmlns="http://www.w3.org/2000/svg">
<path d="M22.5512 0H1.44887C0.649971 0 0 0.649971 0 1.44887V16.0186C0 16.8175 0.649971 17.4674 1.44887 17.4674H8.67983V18.5217C8.67983 19.4881 7.89355 20.2744 6.92712 20.2744H5.33351C5.02797 20.2744 4.78024 20.522 4.78024 20.8276C4.78024 21.1332 5.02797 21.3809 5.33351 21.3809H18.6665C18.972 21.3809 19.2198 21.1332 19.2198 20.8276C19.2198 20.522 18.972 20.2744 18.6665 20.2744H17.0728C16.1064 20.2744 15.3201 19.4881 15.3201 18.5217V17.4675H22.5511C23.35 17.4675 24 16.8175 24 16.0186V1.44887C24.0001 0.649971 23.3501 0 22.5512 0ZM9.18379 20.2745C9.56094 19.79 9.78646 19.1819 9.78646 18.5217V17.4675H14.2137V18.5217C14.2137 19.1819 14.4392 19.79 14.8164 20.2745H9.18379ZM22.8936 16.0186C22.8936 16.2074 22.74 16.361 22.5512 16.361H1.44887C1.2601 16.361 1.10649 16.2074 1.10649 16.0186V13.1108H22.8936V16.0186ZM22.8936 12.0042H1.10654V1.44887C1.10654 1.2601 1.2601 1.10649 1.44891 1.10649H22.5512C22.74 1.10649 22.8936 1.26005 22.8936 1.44887V12.0042H22.8936Z" fill="#6BA30F"/>
<path d="M12.0002 15.3332C12.3299 15.3332 12.5973 15.0658 12.5973 14.7361C12.5973 14.4063 12.3299 14.139 12.0002 14.139C11.6704 14.139 11.4031 14.4063 11.4031 14.7361C11.4031 15.0658 11.6704 15.3332 12.0002 15.3332Z" fill="#6BA30F"/>
<path d="M12.9487 3.81176C12.7326 3.59571 12.3824 3.59571 12.1662 3.81176L8.25615 7.7218C8.0401 7.93785 8.0401 8.28819 8.25615 8.50429C8.36425 8.61234 8.50576 8.66634 8.64742 8.66634C8.78908 8.66634 8.93059 8.61234 9.03864 8.50429L12.9487 4.59424C13.1647 4.37819 13.1647 4.02785 12.9487 3.81176Z" fill="#6BA30F"/>
<path d="M15.2662 6.07769C15.0502 5.86164 14.7 5.86164 14.4837 6.07764L12.9261 7.63521C12.71 7.85131 12.71 8.20165 12.9261 8.4177C13.0341 8.52575 13.1757 8.57975 13.3173 8.57975C13.4589 8.57975 13.6005 8.52575 13.7085 8.4177L15.2662 6.86013C15.4822 6.64408 15.4822 6.29374 15.2662 6.07769Z" fill="#6BA30F"/>
</svg>
