<svg width="24" height="18" viewBox="0 0 24 18" fill="none" xmlns="http://www.w3.org/2000/svg">
<path d="M19.2539 6.87492C19.57 6.87492 19.8262 6.6187 19.8262 6.30263C19.8262 5.98657 19.57 5.73035 19.2539 5.73035C18.9379 5.73035 18.6816 5.98657 18.6816 6.30263C18.6816 6.6187 18.9379 6.87492 19.2539 6.87492Z" fill="#707683"/>
<path d="M15.5786 6.87492C15.8947 6.87492 16.1509 6.6187 16.1509 6.30263C16.1509 5.98657 15.8947 5.73035 15.5786 5.73035C15.2626 5.73035 15.0063 5.98657 15.0063 6.30263C15.0063 6.6187 15.2626 6.87492 15.5786 6.87492Z" fill="#707683"/>
<path d="M11.9033 6.87492C12.2194 6.87492 12.4756 6.6187 12.4756 6.30263C12.4756 5.98657 12.2194 5.73035 11.9033 5.73035C11.5873 5.73035 11.3311 5.98657 11.3311 6.30263C11.3311 6.6187 11.5873 6.87492 11.9033 6.87492Z" fill="#707683"/>
<path d="M8.22805 6.87492C8.54411 6.87492 8.80034 6.6187 8.80034 6.30263C8.80034 5.98657 8.54411 5.73035 8.22805 5.73035C7.91198 5.73035 7.65576 5.98657 7.65576 6.30263C7.65576 6.6187 7.91198 6.87492 8.22805 6.87492Z" fill="#707683"/>
<path d="M4.55251 6.87492C4.86858 6.87492 5.1248 6.6187 5.1248 6.30263C5.1248 5.98657 4.86858 5.73035 4.55251 5.73035C4.23645 5.73035 3.98022 5.98657 3.98022 6.30263C3.98022 6.6187 4.23645 6.87492 4.55251 6.87492Z" fill="#707683"/>
<path d="M19.2539 10.5503C19.57 10.5503 19.8262 10.2941 19.8262 9.97799C19.8262 9.66192 19.57 9.4057 19.2539 9.4057C18.9379 9.4057 18.6816 9.66192 18.6816 9.97799C18.6816 10.2941 18.9379 10.5503 19.2539 10.5503Z" fill="#707683"/>
<path d="M15.5786 10.5503C15.8947 10.5503 16.1509 10.2941 16.1509 9.97799C16.1509 9.66192 15.8947 9.4057 15.5786 9.4057C15.2626 9.4057 15.0063 9.66192 15.0063 9.97799C15.0063 10.2941 15.2626 10.5503 15.5786 10.5503Z" fill="#707683"/>
<path d="M11.9033 10.5503C12.2194 10.5503 12.4756 10.2941 12.4756 9.97799C12.4756 9.66192 12.2194 9.4057 11.9033 9.4057C11.5873 9.4057 11.3311 9.66192 11.3311 9.97799C11.3311 10.2941 11.5873 10.5503 11.9033 10.5503Z" fill="#707683"/>
<path d="M4.55251 10.5503C4.86858 10.5503 5.1248 10.2941 5.1248 9.97799C5.1248 9.66192 4.86858 9.4057 4.55251 9.4057C4.23645 9.4057 3.98022 9.66192 3.98022 9.97799C3.98022 10.2941 4.23645 10.5503 4.55251 10.5503Z" fill="#707683"/>
<path d="M19.2539 14.2256C19.57 14.2256 19.8262 13.9694 19.8262 13.6533C19.8262 13.3373 19.57 13.0811 19.2539 13.0811C18.9379 13.0811 18.6816 13.3373 18.6816 13.6533C18.6816 13.9694 18.9379 14.2256 19.2539 14.2256Z" fill="#707683"/>
<path d="M15.5786 14.2256C15.8947 14.2256 16.1509 13.9694 16.1509 13.6533C16.1509 13.3373 15.8947 13.0811 15.5786 13.0811C15.2626 13.0811 15.0063 13.3373 15.0063 13.6533C15.0063 13.9694 15.2626 14.2256 15.5786 14.2256Z" fill="#707683"/>
<path d="M11.9033 14.2256C12.2194 14.2256 12.4756 13.9694 12.4756 13.6533C12.4756 13.3373 12.2194 13.0811 11.9033 13.0811C11.5873 13.0811 11.3311 13.3373 11.3311 13.6533C11.3311 13.9694 11.5873 14.2256 11.9033 14.2256Z" fill="#707683"/>
<path d="M8.22805 14.2256C8.54411 14.2256 8.80034 13.9694 8.80034 13.6533C8.80034 13.3373 8.54411 13.0811 8.22805 13.0811C7.91198 13.0811 7.65576 13.3373 7.65576 13.6533C7.65576 13.9694 7.91198 14.2256 8.22805 14.2256Z" fill="#707683"/>
<path d="M4.55251 14.2256C4.86858 14.2256 5.1248 13.9694 5.1248 13.6533C5.1248 13.3373 4.86858 13.0811 4.55251 13.0811C4.23645 13.0811 3.98022 13.3373 3.98022 13.6533C3.98022 13.9694 4.23645 14.2256 4.55251 14.2256Z" fill="#707683"/>
<path d="M9.95501 7.75903H6.50073C6.229 7.75903 6.00879 7.97924 6.00879 8.25097V11.7053C6.00879 11.977 6.229 12.1972 6.50073 12.1972H9.95501C10.2267 12.1972 10.4469 11.977 10.4469 11.7053V8.25107C10.4469 7.97929 10.2267 7.75903 9.95501 7.75903ZM9.46307 11.2133H6.99267V8.74296H9.46302V11.2133H9.46307Z" fill="#707683"/>
<path d="M22.1667 1.17801H18.5535V0.546621C18.5535 0.244715 18.3088 0 18.0069 0C17.7051 0 17.4603 0.244761 17.4603 0.546621V1.17801H14.4844V0.546621C14.4844 0.244715 14.2396 0 13.9378 0C13.6359 0 13.3911 0.244761 13.3911 0.546621V1.17801H10.4154V0.546621C10.4154 0.244715 10.1707 0 9.86875 0C9.56685 0 9.32213 0.244761 9.32213 0.546621V1.17801H6.34626V0.546621C6.34626 0.244715 6.10155 0 5.79964 0C5.49774 0 5.25302 0.244761 5.25302 0.546621V1.17801H1.63972C0.735632 1.17801 0 1.91359 0 2.81778V16.2356C0 17.1398 0.735632 17.8754 1.63982 17.8754H22.1668C23.071 17.8754 23.8066 17.1398 23.8066 16.2356V2.81778C23.8066 1.91359 23.0709 1.17801 22.1667 1.17801ZM22.1667 16.7823H1.63982C1.33842 16.7823 1.0932 16.5371 1.0932 16.2357V2.81778C1.0932 2.51638 1.33842 2.27116 1.63982 2.27116H5.25307V2.90249C5.25307 3.20431 5.49778 3.44912 5.79969 3.44912C6.10159 3.44912 6.34631 3.20435 6.34631 2.90249V2.27116H9.32218V2.90249C9.32218 3.20431 9.56689 3.44912 9.8688 3.44912C10.1707 3.44912 10.4154 3.20435 10.4154 2.90249V2.27116H13.3912V2.90249C13.3912 3.20431 13.6359 3.44912 13.9378 3.44912C14.2396 3.44912 14.4844 3.20435 14.4844 2.90249V2.27116H17.4603V2.90249C17.4603 3.20431 17.7051 3.44912 18.0069 3.44912C18.3088 3.44912 18.5535 3.20435 18.5535 2.90249V2.27116H22.1668C22.4682 2.27116 22.7134 2.51638 22.7134 2.81778V16.2356H22.7135C22.7134 16.5371 22.4681 16.7823 22.1667 16.7823Z" fill="#707683"/>
</svg>
