<svg width="11" height="14" viewBox="0 0 11 14" fill="none" xmlns="http://www.w3.org/2000/svg">
<path d="M10.4457 1.37976L6.02477 0.0759427C5.68156 -0.0253142 5.31858 -0.0253142 4.97525 0.0759427L0.554353 1.37974C0.227954 1.47598 0 1.78084 0 2.12114V5.78236C0 7.47675 0.504375 9.10829 1.45861 10.5006C2.39022 11.86 3.68671 12.9058 5.20779 13.5248C5.30202 13.5631 5.40102 13.5823 5.50003 13.5823C5.59903 13.5823 5.69803 13.5631 5.79223 13.5248C7.31331 12.9058 8.60981 11.86 9.54142 10.5006C10.4956 9.10826 11 7.47675 11 5.78236V2.12116C11.0001 1.78086 10.7721 1.47598 10.4457 1.37976ZM10.3817 5.78233C10.3817 7.35137 9.91474 8.86203 9.03139 10.151C8.16844 11.4101 6.96779 12.3787 5.55918 12.952C5.52104 12.9675 5.47904 12.9675 5.4409 12.952C4.03229 12.3787 2.83161 11.4102 1.96869 10.151C1.08534 8.86203 0.618392 7.3514 0.618392 5.78233V2.12114C0.618392 2.05309 0.663993 1.99213 0.729278 1.97287L5.1502 0.669053C5.26464 0.635283 5.38235 0.618438 5.50005 0.618438C5.61773 0.618438 5.73543 0.63531 5.84988 0.66908L10.2709 1.97287C10.3361 1.9921 10.3817 2.05307 10.3817 2.12114V5.78233Z" fill="#707683"/>
<path d="M8.92616 2.74711L5.63124 1.77539C5.54545 1.75011 5.45478 1.75006 5.36893 1.77539L2.07409 2.74711C1.87826 2.80488 1.74146 2.98782 1.74146 3.19198V5.78235C1.74146 7.15113 2.1555 8.464 2.93876 9.57907C3.54604 10.4437 4.3575 11.1575 5.28537 11.6435C5.35259 11.6787 5.42634 11.6963 5.50011 11.6963C5.57386 11.6963 5.64761 11.6787 5.71485 11.6435C6.64269 11.1576 7.45416 10.4437 8.06146 9.57907C8.84472 8.46402 9.25877 7.15113 9.25877 5.78235V3.19198C9.25874 2.98777 9.12196 2.80486 8.92616 2.74711ZM8.06146 3.13682C6.21729 2.59293 7.84334 3.07249 6.69554 2.56484C5.93034 2.48009 6.31294 2.62114 5.50011 2.38142C4.39995 2.70588 5.50011 2.38142 4.8782 2.56484C3.44345 2.98798 4.8782 2.56484 3.06085 3.10081L2.35982 3.30756L5.50011 2.38142L8.6404 3.30756L8.06146 3.13682Z" fill="#888888"/>
</svg>
