<svg width="20" height="16" viewBox="0 0 20 16" fill="none" xmlns="http://www.w3.org/2000/svg">
<path d="M20 7.99884C20 7.35542 19.6044 6.80283 18.964 6.55682L2.33553 0.122586C1.68295 -0.130999 0.944719 0.0166101 0.459365 0.4935C-0.0259905 0.97039 -0.136113 1.66302 0.173862 2.25345L2.82496 7.26837C2.90245 7.41598 3.05744 7.51438 3.23282 7.52574L12.6422 8.24107C12.9195 8.26378 13.1602 8.07075 13.1806 7.81717C13.205 7.56359 12.997 7.33649 12.7238 7.31757L3.59582 6.62116L1.07116 1.84469C0.875383 1.47756 1.11194 1.20505 1.18536 1.12935C1.26285 1.05366 1.5402 0.818997 1.94806 0.97796L18.5766 7.41219C18.9681 7.56359 18.9967 7.90044 18.9967 7.99884C18.9967 8.09725 18.9681 8.4341 18.5766 8.58549L1.94806 15.0197C1.5402 15.1787 1.26285 14.944 1.18536 14.8683C1.10786 14.7926 0.875383 14.5201 1.07116 14.153L3.72226 9.13808C3.84461 8.9072 3.74265 8.63091 3.49385 8.51737C3.24506 8.40382 2.94732 8.49844 2.82496 8.72932L0.173862 13.7442C-0.136113 14.3347 -0.0259905 15.0235 0.459365 15.5042C0.785654 15.8259 1.22614 16 1.67887 16C1.89911 16 2.11936 15.9584 2.33145 15.8789L18.96 9.44465C19.6044 9.19485 20 8.64227 20 7.99884Z" fill="#AAAAAA"/>
</svg>
