<svg width="19" height="18" viewBox="0 0 19 18" fill="none" xmlns="http://www.w3.org/2000/svg">
<path d="M0 7.49048C0 11.6228 3.36187 14.981 7.49048 14.981C9.39259 14.981 11.1325 14.2658 12.4559 13.0936L17.2296 17.8673C17.318 17.9558 17.4323 18 17.5503 18C17.6682 18 17.7825 17.9558 17.871 17.8673C18.0479 17.6904 18.0479 17.4065 17.871 17.2296L13.0936 12.4559C14.2658 11.1325 14.981 9.39627 14.981 7.49048C14.981 3.35818 11.6191 0 7.49048 0C3.36187 0 0 3.35818 0 7.49048ZM14.0778 7.49048C14.0778 11.1214 11.1214 14.0778 7.49048 14.0778C3.85951 14.0778 0.903133 11.1214 0.903133 7.49048C0.903133 3.85951 3.85951 0.903133 7.49048 0.903133C11.1214 0.903133 14.0778 3.85583 14.0778 7.49048Z" fill="#AAAAAA"/>
</svg>
