<svg width="41" height="42" viewBox="0 0 41 42" fill="none" xmlns="http://www.w3.org/2000/svg">
<path opacity="0.1" d="M40.6503 20.7836C40.6503 32.262 31.6036 41.5671 20.444 41.5671C9.28444 41.5671 0.237793 32.262 0.237793 20.7836C0.237793 9.30512 9.28444 0 20.444 0C31.6036 0 40.6503 9.30512 40.6503 20.7836ZM6.29967 20.7836C6.29967 28.8185 12.6323 35.3321 20.444 35.3321C28.2558 35.3321 34.5884 28.8185 34.5884 20.7836C34.5884 12.7487 28.2558 6.23507 20.444 6.23507C12.6323 6.23507 6.29967 12.7487 6.29967 20.7836Z" fill="#AAAAAA"/>
<path d="M20.444 0C24.1705 4.57075e-08 27.8244 1.05995 31.0018 3.06266C34.1791 5.06538 36.7562 7.93284 38.4479 11.348C40.1397 14.7632 40.8804 18.5931 40.588 22.4142C40.2956 26.2354 38.9816 29.8989 36.7912 32.9998L31.8871 29.335C33.4203 27.1643 34.3401 24.5998 34.5448 21.925C34.7495 19.2502 34.231 16.5693 33.0468 14.1787C31.8625 11.7881 30.0586 9.78084 27.8345 8.37894C25.6103 6.97704 23.0526 6.23507 20.444 6.23507V0Z" fill="#FF9800"/>
</svg>
