<svg width="41" height="42" viewBox="0 0 41 42" fill="none" xmlns="http://www.w3.org/2000/svg">
<path opacity="0.1" d="M40.4125 20.7836C40.4125 32.262 31.3659 41.5671 20.2062 41.5671C9.04665 41.5671 0 32.262 0 20.7836C0 9.30512 9.04665 0 20.2062 0C31.3659 0 40.4125 9.30512 40.4125 20.7836ZM6.06188 20.7836C6.06188 28.8185 12.3945 35.3321 20.2062 35.3321C28.018 35.3321 34.3506 28.8185 34.3506 20.7836C34.3506 12.7487 28.018 6.23507 20.2062 6.23507C12.3945 6.23507 6.06188 12.7487 6.06188 20.7836Z" fill="#AAAAAA"/>
<path d="M20.2062 0C24.4734 5.2339e-08 28.631 1.38948 32.0832 3.96931C35.5354 6.54913 38.1049 10.1869 39.4235 14.3611L33.6583 16.2878C32.7353 13.3659 30.9366 10.8195 28.5201 9.01359C26.1036 7.20771 23.1932 6.23507 20.2062 6.23507V0Z" fill="#FF2A00"/>
</svg>
