<svg width="42" height="42" viewBox="0 0 42 42" fill="none" xmlns="http://www.w3.org/2000/svg">
<path opacity="0.1" d="M41.2377 20.7836C41.2377 32.262 32.191 41.5671 21.0314 41.5671C9.87184 41.5671 0.825195 32.262 0.825195 20.7836C0.825195 9.30512 9.87184 0 21.0314 0C32.191 0 41.2377 9.30512 41.2377 20.7836ZM6.88707 20.7836C6.88707 28.8185 13.2197 35.3321 21.0314 35.3321C28.8432 35.3321 35.1758 28.8185 35.1758 20.7836C35.1758 12.7487 28.8432 6.23507 21.0314 6.23507C13.2197 6.23507 6.88707 12.7487 6.88707 20.7836Z" fill="#AAAAAA"/>
<path d="M41.2377 20.7836C41.2377 32.262 32.191 41.5671 21.0314 41.5671C9.87184 41.5671 0.825195 32.262 0.825195 20.7836C0.825195 9.30512 9.87184 0 21.0314 0C32.191 0 41.2377 9.30512 41.2377 20.7836ZM6.88707 20.7836C6.88707 28.8185 13.2197 35.3321 21.0314 35.3321C28.8432 35.3321 35.1758 28.8185 35.1758 20.7836C35.1758 12.7487 28.8432 6.23507 21.0314 6.23507C13.2197 6.23507 6.88707 12.7487 6.88707 20.7836Z" fill="#FF9800"/>
</svg>
