<svg width="42" height="42" viewBox="0 0 42 42" fill="none" xmlns="http://www.w3.org/2000/svg">
<path opacity="0.1" d="M41.0629 20.7836C41.0629 32.262 32.0162 41.5671 20.8566 41.5671C9.69704 41.5671 0.650391 32.262 0.650391 20.7836C0.650391 9.30512 9.69704 0 20.8566 0C32.0162 0 41.0629 9.30512 41.0629 20.7836ZM6.71227 20.7836C6.71227 28.8185 13.0449 35.3321 20.8566 35.3321C28.6684 35.3321 35.001 28.8185 35.001 20.7836C35.001 12.7487 28.6684 6.23507 20.8566 6.23507C13.0449 6.23507 6.71227 12.7487 6.71227 20.7836Z" fill="#AAAAAA"/>
<path d="M20.8566 0C24.3139 4.24056e-08 27.7134 0.912421 30.7298 2.64999C33.7463 4.38755 36.2789 6.89214 38.0853 9.92418C39.8917 12.9562 40.9116 16.4143 41.0473 19.9676C41.183 23.5209 40.4301 27.0506 38.8605 30.2191C37.291 33.3876 34.9573 36.0888 32.0826 38.0645C29.208 40.0401 25.8886 41.2241 22.442 41.5031C18.9954 41.7821 15.5368 41.1468 12.3971 39.658C9.25739 38.1693 6.54158 35.8768 4.50944 32.9999L9.4136 29.335C10.8361 31.3488 12.7372 32.9535 14.935 33.9957C17.1328 35.0378 19.5538 35.4825 21.9664 35.2872C24.379 35.0919 26.7026 34.2632 28.7148 32.8802C30.7271 31.4973 32.3607 29.6064 33.4594 27.3885C34.5581 25.1705 35.0851 22.6997 34.9901 20.2124C34.8951 17.7251 34.1812 15.3044 32.9167 13.182C31.6522 11.0596 29.8794 9.30636 27.7679 8.09006C25.6564 6.87377 23.2767 6.23507 20.8566 6.23507V0Z" fill="#6BA30F"/>
</svg>
