<svg width="41" height="42" viewBox="0 0 41 42" fill="none" xmlns="http://www.w3.org/2000/svg">
<path opacity="0.1" d="M40.8251 20.7836C40.8251 32.262 31.7785 41.5671 20.6188 41.5671C9.45924 41.5671 0.412598 32.262 0.412598 20.7836C0.412598 9.30512 9.45924 0 20.6188 0C31.7785 0 40.8251 9.30512 40.8251 20.7836ZM6.47447 20.7836C6.47447 28.8185 12.8071 35.3321 20.6188 35.3321C28.4306 35.3321 34.7632 28.8185 34.7632 20.7836C34.7632 12.7487 28.4306 6.23507 20.6188 6.23507C12.8071 6.23507 6.47447 12.7487 6.47447 20.7836Z" fill="#AAAAAA"/>
<path d="M20.6188 0C24.3453 4.57075e-08 27.9992 1.05995 31.1766 3.06266C34.3539 5.06538 36.931 7.93284 38.6227 11.348C40.3145 14.7632 41.0552 18.5931 40.7628 22.4142C40.4704 26.2354 39.1564 29.8989 36.966 32.9998L32.0619 29.335C33.5951 27.1643 34.515 24.5998 34.7196 21.925C34.9243 19.2502 34.4058 16.5693 33.2216 14.1787C32.0373 11.7881 30.2334 9.78084 28.0093 8.37894C25.7851 6.97704 23.2274 6.23507 20.6188 6.23507V0Z" fill="#FF9800"/>
<g clip-path="url(#clip0)">
<path d="M26.5275 20.0152C26.5275 16.9672 24.0477 14.4875 20.9996 14.4875C17.9516 14.4875 15.4719 16.9672 15.4719 20.0152C15.4719 23.0631 17.9516 25.5427 20.9996 25.5427C24.0477 25.5427 26.5275 23.0631 26.5275 20.0152ZM20.0143 22.3731L18.127 20.4858L18.6991 19.9139L20.0143 21.2291L23.3003 17.9432L23.8724 18.5151L20.0143 22.3731Z" fill="#AAAAAA"/>
<path d="M15.8913 23.7593L14.218 26.1998L16.692 25.7385L17.1533 28.2125L18.7203 25.9272C17.5827 25.487 16.603 24.7277 15.8913 23.7593Z" fill="#A6A6A6"/>
<path d="M26.108 23.7593C25.3964 24.7277 24.4167 25.487 23.2791 25.9272L24.846 28.2125L25.3074 25.7385L27.7813 26.1998L26.108 23.7593Z" fill="#A6A6A6"/>
</g>
<defs>
<clipPath id="clip0">
</clipPath>
</defs>
</svg>
