<svg width="26" height="16" viewBox="0 0 26 16" fill="none" xmlns="http://www.w3.org/2000/svg">
<path opacity="0.25" fill-rule="evenodd" clip-rule="evenodd" d="M22.7858 0H24.3572C25.2251 0 25.9286 0.703552 25.9286 1.57143V14.1429C25.9286 15.0107 25.2251 15.7143 24.3572 15.7143H22.7858C21.9179 15.7143 21.2144 15.0107 21.2144 14.1429V1.57143C21.2144 0.703552 21.9179 0 22.7858 0Z" fill="black"/>
<path fill-rule="evenodd" clip-rule="evenodd" d="M17.2857 3.14282H15.7143C14.8464 3.14282 14.1429 3.84637 14.1429 4.71425V14.1428C14.1429 15.0107 14.8464 15.7143 15.7143 15.7143H17.2857C18.1536 15.7143 18.8571 15.0107 18.8571 14.1428V4.71425C18.8571 3.84637 18.1536 3.14282 17.2857 3.14282ZM8.64286 6.28568H10.2143C11.0822 6.28568 11.7857 6.98923 11.7857 7.85711V14.1428C11.7857 15.0107 11.0822 15.7143 10.2143 15.7143H8.64286C7.77498 15.7143 7.07143 15.0107 7.07143 14.1428V7.85711C7.07143 6.98923 7.77498 6.28568 8.64286 6.28568ZM1.57143 8.64282H3.14286C4.01073 8.64282 4.71429 9.34637 4.71429 10.2143V14.1428C4.71429 15.0107 4.01073 15.7143 3.14286 15.7143H1.57143C0.703553 15.7143 0 15.0107 0 14.1428V10.2143C0 9.34637 0.703553 8.64282 1.57143 8.64282Z" fill="black"/>
</svg>
